PathFileType	4	(X/Y/Z)	/Users/itak/Documents/Research/Walk-IL/dataset/trc/00330_00011.trc
DataRate	CameraRate	NumFrames	NumMarkers	Units	OrigDataRate	OrigDataStartFrame	OrigNumFrames
100.000000	100.000000	4	53	mm	100.000000	308	493
Frame#	Time	RPSI			LPSI			L3			STRN			T10			C7			CLAV			RBAK			LBAK			LSHO			LUPA			LAEL			LAOL			LWTS			LWPS			LFRA			LIFD			LHTS			RSHO			RUPA			RAEL			RAOL			RWPS			RFRA			RIFD			RHTS			RHPS			RBHD			LFHD			RFHD			LBHD			LHIP			RHIP			RASI			LASI			LKNE			LTHI			LANK			LTIP			LTOE			LMT1			LMT5			LHEE			RKNE			RTHI			RANK			RTIP			RTOE			RMT1			RMT5			RHEE			RWTS			LHPS			
		X1	Y1	Z1	X2	Y2	Z2	X3	Y3	Z3	X4	Y4	Z4	X5	Y5	Z5	X6	Y6	Z6	X7	Y7	Z7	X8	Y8	Z8	X9	Y9	Z9	X10	Y10	Z10	X11	Y11	Z11	X12	Y12	Z12	X13	Y13	Z13	X14	Y14	Z14	X15	Y15	Z15	X16	Y16	Z16	X17	Y17	Z17	X18	Y18	Z18	X19	Y19	Z19	X20	Y20	Z20	X21	Y21	Z21	X22	Y22	Z22	X23	Y23	Z23	X24	Y24	Z24	X25	Y25	Z25	X26	Y26	Z26	X27	Y27	Z27	X28	Y28	Z28	X29	Y29	Z29	X30	Y30	Z30	X31	Y31	Z31	X32	Y32	Z32	X33	Y33	Z33	X34	Y34	Z34	X35	Y35	Z35	X36	Y36	Z36	X37	Y37	Z37	X38	Y38	Z38	X39	Y39	Z39	X40	Y40	Z40	X41	Y41	Z41	X42	Y42	Z42	X43	Y43	Z43	X44	Y44	Z44	X45	Y45	Z45	X46	Y46	Z46	X47	Y47	Z47	X48	Y48	Z48	X49	Y49	Z49	X50	Y50	Z50	X51	Y51	Z51	X52	Y52	Z52	X53	Y53	Z53	

309	3.08	-650.9109497070312	979.3780517578125	162.6094818115234	-648.4523315429688	984.031494140625	33.03603744506836	-655.0155029296875	1049.157348632812	91.92478179931641	-419.7069702148438	1207.796142578125	79.80751037597656	-655.0935668945312	1167.4013671875	70.62068176269531	-593.0618286132812	1410.01171875	38.43019485473633	-451.4020690917969	1331.450317382812	62.56563568115234	-659.3541259765625	1282.10693359375	115.1951904296875	-597.1095581054688	1365.45751953125	-58.90718078613281	-506.4021606445312	1374.320190429688	-106.7906265258789	-535.1259765625	1259.624267578125	-178.1741180419922	-550.191650390625	1056.646240234375	-199.2969818115234	-610.5167846679688	1050.002563476562	-140.9858093261719	-498.97119140625	799.4119262695312	-177.9273071289062	-544.3974609375	801.296875	-230.3717346191406	-555.2230834960938	952.7577514648438	-212.477783203125	-521.4664306640625	640.9893798828125	-192.578369140625	-501.2745361328125	723.7743530273438	-204.2452545166016	-553.081298828125	1407.183837890625	202.8626708984375	-574.4915771484375	1355.835083007812	277.1455078125	-563.1868286132812	1099.983032226562	361.7575073242188	-603.072998046875	1072.707397460938	279.0244140625	-476.8525390625	870.5521240234375	431.4818420410156	-535.1505737304688	1036.779052734375	384.600830078125	-415.4275512695312	708.72802734375	403.43798828125	-402.1612548828125	783.2360229492188	399.298828125	-455.3200378417969	788.3331909179688	444.7853698730469	-554.8877563476562	1604.870483398438	116.4839859008789	-370.344482421875	1612.901000976562	19.4144172668457	-392.3542785644531	1615.730224609375	117.9536743164062	-550.1917724609375	1595.810302734375	-27.82605743408203	-565.263671875	923.3646850585938	-71.01699066162109	-570.7723999023438	927.0225830078125	271.7284851074219	-467.4776306152344	958.4164428710938	227.7550811767578	-443.9312438964844	949.4032592773438	-14.24515151977539	-492.2723083496094	462.4125671386719	-47.58494186401367	-505.8546142578125	604.2371826171875	-60.63064575195312	-590.7532348632812	44.75801849365234	-33.04361724853516	-539.7044677734375	247.1299743652344	-50.32558441162109	-396.4718017578125	50.09788131713867	56.9385871887207	-470.6144409179688	40.79684829711914	86.45742797851562	-463.0084533691406	47.4965705871582	-27.26209259033203	-637.2021484375	44.90976715087891	27.8859920501709	-413.071533203125	483.0599060058594	258.226318359375	-453.3134155273438	731.9600219726562	280.6134948730469	-666.918212890625	139.764404296875	261.1092834472656	-457.9629211425781	371.1509704589844	256.1779174804688	-491.6708679199219	62.14863204956055	213.2739410400391	-545.3814086914062	72.77394866943359	169.7377319335938	-582.688232421875	83.49571228027344	280.1444091796875	-712.477294921875	161.7472534179688	212.3601531982422	-437.9113464355469	876.5339965820312	364.9289245605469	-558.7182006835938	732.882080078125	-232.0982055664062	
310	3.09	-656.7439575195312	979.7064208984375	163.7231140136719	-654.9652099609375	984.2998046875	34.24440383911133	-661.6639404296875	1048.73046875	93.65397644042969	-427.3018493652344	1208.507934570312	80.02375793457031	-662.4292602539062	1167.096435546875	73.10614776611328	-601.7460327148438	1410.0888671875	40.83201217651367	-459.4134521484375	1332.200561523438	63.17218017578125	-666.7621459960938	1281.761596679688	118.0321884155273	-606.7510986328125	1365.815795898438	-56.51116943359375	-516.6602783203125	1375.040405273438	-105.3461227416992	-546.6861572265625	1260.872680664062	-176.8485565185547	-562.7152709960938	1058.16064453125	-199.0312957763672	-621.753173828125	1051.142700195312	-139.5701293945312	-510.6645812988281	800.9363403320312	-180.8627624511719	-557.5278930664062	803.1721801757812	-232.1286773681641	-567.9296875	954.3106689453125	-212.927001953125	-532.9046020507812	642.4231567382812	-196.7351989746094	-513.2337646484375	725.7650146484375	-207.9441375732422	-560.088134765625	1407.176879882812	204.7467803955078	-580.418701171875	1355.66650390625	279.2542724609375	-566.7627563476562	1099.86572265625	363.4928588867188	-607.6827392578125	1072.480712890625	281.3626708984375	-479.4202575683594	870.6699829101562	432.3121337890625	-538.3194580078125	1036.693603515625	385.9625854492188	-419.5486145019531	708.3494873046875	403.7402954101562	-405.6660766601562	783.0324096679688	399.4241638183594	-458.2882690429688	788.2182006835938	445.5774536132812	-562.4092407226562	1605.632568359375	117.9709014892578	-378.5841979980469	1612.560913085938	19.49713706970215	-399.7971496582031	1615.6162109375	118.1803207397461	-558.8561401367188	1596.419189453125	-26.33635139465332	-572.0891723632812	923.9727783203125	-70.20930480957031	-576.782958984375	926.8289794921875	272.7214050292969	-473.4469299316406	958.0441284179688	228.8597106933594	-450.7679443359375	950.1646118164062	-13.37042713165283	-496.7577209472656	463.2426452636719	-47.96088790893555	-511.3946533203125	604.9158325195312	-60.73442459106445	-590.9400024414062	44.46876907348633	-33.35551071166992	-541.9713134765625	247.5632629394531	-50.67593383789062	-396.8499145507812	51.12252044677734	56.7663459777832	-470.6524047851562	41.36466979980469	86.26651000976562	-463.2346801757812	47.72714614868164	-27.4807300567627	-637.478759765625	44.73422622680664	27.51991081237793	-429.3880310058594	480.0318908691406	259.2866821289062	-462.9221801757812	729.8671875	280.8059692382812	-693.8948364257812	145.1013946533203	261.50146484375	-477.5578918457031	369.6119384765625	257.1281127929688	-521.315673828125	62.00149917602539	214.1293182373047	-574.5217895507812	74.15602111816406	170.3807525634766	-611.760498046875	86.12445831298828	280.7569274902344	-738.568359375	168.5022583007812	212.5327911376953	-441.5455627441406	876.2263793945312	365.4004821777344	-571.5758056640625	734.6824340820312	-234.1850280761719	
311	3.1	-662.5228271484375	979.9714965820312	164.9592437744141	-661.5026245117188	984.4822998046875	35.56025314331055	-668.188232421875	1048.1630859375	95.50482940673828	-434.923095703125	1209.126342773438	80.31674957275391	-669.8236694335938	1166.73095703125	75.64203643798828	-610.36865234375	1410.07958984375	43.38247680664062	-467.380859375	1332.873168945312	63.89248275756836	-674.1000366210938	1281.322143554688	120.9716720581055	-616.3558959960938	1366.09765625	-53.97661590576172	-526.8948974609375	1375.710815429688	-103.7630844116211	-558.1995849609375	1262.0517578125	-175.3517608642578	-575.17236328125	1059.611694335938	-198.5356292724609	-632.8306884765625	1052.177490234375	-137.9120025634766	-522.1614990234375	802.4656982421875	-183.6067352294922	-570.4986572265625	804.9603881835938	-233.5984191894531	-580.5258178710938	955.7898559570312	-213.145263671875	-544.1176147460938	643.8031616210938	-200.61865234375	-525.1066284179688	727.6928100585938	-211.2523040771484	-567.03076171875	1407.069091796875	206.7511901855469	-586.3040161132812	1355.377075195312	281.4539794921875	-570.3130493164062	1099.636108398438	365.2495727539062	-612.2921752929688	1072.1474609375	283.7510375976562	-481.8671569824219	870.6699829101562	433.0757751464844	-541.4979858398438	1036.48681640625	387.3262329101562	-423.4700012207031	707.929443359375	403.8742370605469	-409.2207336425781	782.5761108398438	399.4262084960938	-461.0751647949219	788.010986328125	446.2537231445312	-569.913818359375	1606.291748046875	119.6402206420898	-386.86083984375	1612.179931640625	19.69674110412598	-407.2398376464844	1615.42333984375	118.5311431884766	-567.5452880859375	1596.961791992188	-24.66299629211426	-579.0130615234375	924.4744262695312	-69.34011840820312	-582.6594848632812	926.5377197265625	273.7825012207031	-479.309814453125	957.5169067382812	229.9253082275391	-457.6448059082031	950.80615234375	-12.53262615203857	-501.1563110351562	464.0319519042969	-48.15493392944336	-516.9240112304688	605.5032958984375	-60.71023178100586	-591.127197265625	44.20851135253906	-33.63977813720703	-544.1495971679688	247.9772491455078	-50.94842910766602	-397.2410583496094	52.13494110107422	56.65368270874023	-470.7383117675781	41.9498405456543	86.14703369140625	-463.44384765625	47.99606704711914	-27.64278030395508	-637.766845703125	44.55837249755859	27.17487525939941	-445.932373046875	477.1163330078125	260.4157409667969	-472.5230712890625	727.7584838867188	280.9721069335938	-720.4024658203125	150.4463958740234	261.8290710449219	-497.2033081054688	368.2026977539062	258.0953063964844	-550.718017578125	61.84429931640625	214.8248291015625	-603.356201171875	75.67356109619141	170.8386688232422	-640.4749145507812	88.77210998535156	281.2366027832031	-764.12548828125	175.2875518798828	212.6650695800781	-445.1316528320312	875.8502807617188	365.7548522949219	-584.2304077148438	736.4049072265625	-235.9371948242188	
312	3.11	-668.28466796875	980.1453247070312	166.3489990234375	-668.10595703125	984.5746459960938	37.01292037963867	-674.5792236328125	1047.4873046875	97.53462219238281	-442.5535888671875	1209.63330078125	80.69144439697266	-677.2755737304688	1166.324096679688	78.24752807617188	-618.908447265625	1409.98876953125	46.07445907592773	-475.3203735351562	1333.423461914062	64.73896789550781	-681.3640747070312	1280.809936523438	124.0228424072266	-625.9080810546875	1366.29638671875	-51.30906677246094	-537.083740234375	1376.31201171875	-102.041748046875	-569.6213989257812	1263.137329101562	-173.6855621337891	-587.513671875	1060.975708007812	-197.8080291748047	-643.7265625	1053.08642578125	-136.0354614257812	-533.4767456054688	803.9605102539062	-186.1437835693359	-583.287109375	806.6257934570312	-234.7861328125	-592.9905395507812	957.1719970703125	-213.1357421875	-555.1355590820312	645.1128540039062	-204.1857147216797	-536.9237060546875	729.4931030273438	-214.1299896240234	-573.883544921875	1406.8662109375	208.8700408935547	-592.1302490234375	1354.982055664062	283.7404174804688	-573.8687133789062	1099.299194335938	367.014892578125	-616.9125366210938	1071.718383789062	286.1562805175781	-484.2481689453125	870.5491333007812	433.7592468261719	-544.713623046875	1036.162841796875	388.6795654296875	-427.1439514160156	707.4960327148438	403.8694458007812	-412.8021240234375	781.8766479492188	399.2839965820312	-463.693603515625	787.739990234375	446.8140258789062	-577.3946533203125	1606.8291015625	121.49267578125	-395.1593322753906	1611.774536132812	20.01944351196289	-414.6771545410156	1615.158325195312	119.0168151855469	-576.24462890625	1597.427734375	-22.80928039550781	-586.0789794921875	924.888671875	-68.39752960205078	-588.4168090820312	926.1215209960938	274.9245910644531	-485.0785522460938	956.8196411132812	230.9431762695312	-464.6069030761719	951.3392944335938	-11.72487258911133	-505.4054565429688	464.7874450683594	-48.1656494140625	-522.3819580078125	606.007080078125	-60.53426742553711	-591.3088989257812	43.9810676574707	-33.89375305175781	-546.2197875976562	248.3734130859375	-51.1286506652832	-397.6406555175781	53.10501861572266	56.60733413696289	-470.8784484863281	42.52409362792969	86.09733581542969	-463.6387023925781	48.28733062744141	-27.75450706481934	-638.0523681640625	44.38284683227539	26.8604679107666	-462.65087890625	474.3334655761719	261.6039428710938	-482.0815734863281	725.633544921875	281.1445922851562	-746.3330688476562	155.663330078125	262.1187744140625	-516.842041015625	366.9049682617188	259.0721130371094	-579.7193603515625	61.5854377746582	215.3049163818359	-631.7346801757812	77.23984527587891	171.0991363525391	-668.6620483398438	91.32689666748047	281.5704040527344	-789.0510864257812	181.9581298828125	212.8153686523438	-448.6903381347656	875.42138671875	365.9933471679688	-596.68701171875	738.02099609375	-237.3541412353516	
